<svg width="43" height="50" viewBox="0 0 43 50" fill="none" xmlns="http://www.w3.org/2000/svg">
<path d="M4.96154 21.6667V20H3.30769V21.6667H4.96154ZM18.1923 21.6667V20H16.5385V21.6667H18.1923ZM18.1923 35H16.5385V36.6667H18.1923V35ZM41.3462 11.6667H43V10.9767L42.5171 10.4867L41.3462 11.6667ZM31.4231 1.66667L32.594 0.486667L32.1078 0H31.4231V1.66667ZM4.96154 23.3333H8.26923V20H4.96154V23.3333ZM6.61538 36.6667V28.3333H3.30769V36.6667H6.61538ZM6.61538 28.3333V21.6667H3.30769V28.3333H6.61538ZM8.26923 26.6667H4.96154V30H8.26923V26.6667ZM9.92308 25C9.92308 25.442 9.74883 25.8659 9.43868 26.1785C9.12852 26.4911 8.70786 26.6667 8.26923 26.6667V30C9.58511 30 10.8471 29.4732 11.7776 28.5355C12.708 27.5979 13.2308 26.3261 13.2308 25H9.92308ZM8.26923 23.3333C8.70786 23.3333 9.12852 23.5089 9.43868 23.8215C9.74883 24.134 9.92308 24.558 9.92308 25H13.2308C13.2308 23.6739 12.708 22.4021 11.7776 21.4645C10.8471 20.5268 9.58511 20 8.26923 20V23.3333ZM16.5385 21.6667V35H19.8462V21.6667H16.5385ZM18.1923 36.6667H21.5V33.3333H18.1923V36.6667ZM26.4615 31.6667V25H23.1538V31.6667H26.4615ZM21.5 20H18.1923V23.3333H21.5V20ZM26.4615 25C26.4615 23.6739 25.9388 22.4021 25.0083 21.4645C24.0779 20.5268 22.8159 20 21.5 20V23.3333C21.9386 23.3333 22.3593 23.5089 22.6694 23.8215C22.9796 24.134 23.1538 24.558 23.1538 25H26.4615ZM21.5 36.6667C22.8159 36.6667 24.0779 36.1399 25.0083 35.2022C25.9388 34.2645 26.4615 32.9927 26.4615 31.6667H23.1538C23.1538 32.1087 22.9796 32.5326 22.6694 32.8452C22.3593 33.1577 21.9386 33.3333 21.5 33.3333V36.6667ZM29.7692 20V36.6667H33.0769V20H29.7692ZM31.4231 23.3333H39.6923V20H31.4231V23.3333ZM31.4231 30H36.3846V26.6667H31.4231V30ZM3.30769 16.6667V5H0V16.6667H3.30769ZM39.6923 11.6667V16.6667H43V11.6667H39.6923ZM4.96154 3.33333H31.4231V0H4.96154V3.33333ZM30.2522 2.84667L40.1752 12.8467L42.5171 10.4867L32.594 0.486667L30.2522 2.84667ZM3.30769 5C3.30769 4.55797 3.48194 4.13405 3.79209 3.82149C4.10225 3.50893 4.52291 3.33333 4.96154 3.33333V0C3.64566 0 2.38367 0.526784 1.4532 1.46447C0.522732 2.40215 0 3.67392 0 5H3.30769ZM0 40V45H3.30769V40H0ZM4.96154 50H38.0385V46.6667H4.96154V50ZM43 45V40H39.6923V45H43ZM38.0385 50C39.3543 50 40.6163 49.4732 41.5468 48.5355C42.4773 47.5979 43 46.3261 43 45H39.6923C39.6923 45.442 39.5181 45.866 39.2079 46.1785C38.8978 46.4911 38.4771 46.6667 38.0385 46.6667V50ZM0 45C0 46.3261 0.522732 47.5979 1.4532 48.5355C2.38367 49.4732 3.64566 50 4.96154 50V46.6667C4.52291 46.6667 4.10225 46.4911 3.79209 46.1785C3.48194 45.866 3.30769 45.442 3.30769 45H0Z" fill="#A62E19"/>
</svg>
