<?xml version="1.0" encoding="UTF-8"?>
<svg xmlns="http://www.w3.org/2000/svg" width="52" height="45.106" viewBox="0 0 52 45.106">
  <g id="a" data-name="Layer 1"/>
  <g id="b" data-name="Internal-Geometry"/>
  <g id="c" data-name="Layer 3">
    <g>
      <polygon points="39.52 19.714 29.549 13.955 29.549 19.056 22.642 19.056 22.642 13.842 12.48 19.71 26 27.52 39.52 19.714" fill="#fff"/>
      <polygon points="11.341 32.213 13.511 30.96 19.982 34.695 13.406 38.494 24.861 45.106 24.861 29.494 11.341 21.689 11.341 32.213" fill="#fff"/>
      <polygon points="38.489 30.96 40.659 32.213 40.659 21.689 27.139 29.494 27.139 45.106 38.594 38.494 32.018 34.695 38.489 30.96" fill="#fff"/>
      <polygon points="52 42.497 50.816 37.577 48.56 38.88 40.659 34.319 38.489 33.066 37.078 33.883 35.667 34.695 40.418 37.441 45.737 40.509 43.522 41.789 52 42.497" fill="#fff"/>
      <polygon points="16.333 34.695 14.922 33.883 13.511 33.066 11.341 34.319 3.44 38.88 1.184 37.577 0 42.497 8.478 41.789 6.263 40.509 11.582 37.441 16.333 34.695" fill="#fff"/>
      <polygon points="24.466 12.789 24.466 17.232 27.725 17.232 27.725 12.902 27.725 5.414 30.207 5.414 26 0 21.788 5.414 24.466 5.414 24.466 12.789" fill="#fff"/>
      <polygon points="26 28.837 26 30.153 27.139 29.494 27.139 28.837 26 28.837" fill="#fff"/>
    </g>
  </g>
  <g id="d" data-name="Layer 4"/>
</svg>