<?xml version="1.0" encoding="utf-8"?>
<!-- Generator: Adobe Illustrator 27.2.0, SVG Export Plug-In . SVG Version: 6.00 Build 0)  -->
<svg version="1.1" id="houdini" xmlns="http://www.w3.org/2000/svg" xmlns:xlink="http://www.w3.org/1999/xlink" x="0px" y="0px"
	 viewBox="0 0 94.6 97.2" style="enable-background:new 0 0 94.6 97.2;" xml:space="preserve">
<style type="text/css">
	.st0{fill:#F47836;}
</style>
<path class="st0" d="M62.8,53.3c-2-9.8-12.1-21.4-23.2-23.9c-11.5-2.6-19.3-2.7-28.3,3.4C8.7,34.6,4.2,37.7,0,42.2v15.2
	c5.9-12.8,19.3-23.4,34.3-19.6c25.5,6.5,21.4,24.5,18.4,31.8c-5.5,13.1-25.7,18.8-32,6.3C14,62.2,29.1,60,29.1,60s-3.9,3.8,1,8.8
	c3.4,3.5,9.9,0.3,12.2-5.8c2-5.4-2.3-12.8-11.6-13.6c-7.8-0.7-19.5,5.2-20.7,17.2c-1.1,11.3,3.9,16,11.3,21c7.3,5,22.9,6.9,31.9-1.9
	C62.7,76.1,65.6,66.4,62.8,53.3 M0,0v29.8c4.5-3.9,8.2-5.9,8.3-6c16.3-9.4,30.6-4.8,39-2.1c13.3,4.2,23.8,14.7,28.3,25.5
	c5.3,12.5,0.7,36.5-17.1,48.6c-0.8,0.5-1.6,1-2.3,1.4h38.3V0H0z M0,81.2v11.5c0.6,0.5,1.2,0.9,1.7,1.3c-0.5-0.2-1.1-0.5-1.7-0.8v4.1
	h16.6c-1.2-0.7-2.4-1.3-3.3-2C8.4,91.8,3.2,87.1,0,81.2z"/>
</svg>
