<svg width="31" height="31" viewBox="0 0 31 31" fill="none" xmlns="http://www.w3.org/2000/svg">
<path d="M30.9002 9.1498C30.8828 7.84817 30.6387 6.55949 30.1789 5.34139C29.7801 4.31393 29.171 3.38082 28.3906 2.60166C27.6101 1.82251 26.6754 1.21445 25.6463 0.816332C24.4418 0.364956 23.1694 0.120888 21.8832 0.0945228C20.2271 0.0206232 19.7021 0 15.4983 0C11.2945 0 10.7557 1.15241e-07 9.11167 0.0945228C7.82602 0.121082 6.55419 0.365146 5.35029 0.816332C4.32096 1.21417 3.38614 1.82213 2.60565 2.60132C1.82517 3.38051 1.21619 4.31377 0.817692 5.34139C0.364658 6.54292 0.120714 7.81292 0.0964016 9.09652C0.0223789 10.7515 0 11.2757 0 15.4725C0 19.6693 -1.28259e-08 20.2055 0.0964016 21.8485C0.122223 23.134 0.364949 24.4023 0.817692 25.6071C1.21686 26.6344 1.82629 27.5672 2.60704 28.3461C3.38779 29.125 4.32269 29.7327 5.35201 30.1304C6.55261 30.5999 7.82466 30.8614 9.1134 30.9038C10.7712 30.9777 11.2962 31 15.5 31C19.7038 31 20.2426 31 21.8866 30.9038C23.1728 30.8785 24.4453 30.635 25.6497 30.1837C26.6786 29.7851 27.613 29.1769 28.3934 28.3978C29.1738 27.6187 29.7831 26.6858 30.1823 25.6586C30.6351 24.4556 30.8778 23.1873 30.9036 21.9C30.9776 20.2468 31 19.7226 31 15.5241C30.9966 11.3273 30.9966 10.7945 30.9002 9.1498ZM15.488 23.409C11.0914 23.409 7.52965 19.8532 7.52965 15.4639C7.52965 11.0746 11.0914 7.51885 15.488 7.51885C17.5986 7.51885 19.6228 8.35592 21.1153 9.84591C22.6078 11.3359 23.4462 13.3567 23.4462 15.4639C23.4462 17.5711 22.6078 19.5919 21.1153 21.0819C19.6228 22.5719 17.5986 23.409 15.488 23.409ZM23.763 9.07761C23.5192 9.07784 23.2778 9.03008 23.0526 8.93705C22.8273 8.84403 22.6227 8.70757 22.4503 8.53549C22.2779 8.36341 22.1412 8.15909 22.0481 7.93421C21.9549 7.70934 21.907 7.46833 21.9073 7.22497C21.9073 6.98179 21.9552 6.74099 22.0485 6.51632C22.1417 6.29165 22.2783 6.08751 22.4505 5.91556C22.6228 5.74361 22.8273 5.6072 23.0523 5.51414C23.2774 5.42108 23.5186 5.37319 23.7621 5.37319C24.0057 5.37319 24.2469 5.42108 24.472 5.51414C24.697 5.6072 24.9015 5.74361 25.0737 5.91556C25.246 6.08751 25.3826 6.29165 25.4758 6.51632C25.569 6.74099 25.617 6.98179 25.617 7.22497C25.617 8.24925 24.7873 9.07761 23.763 9.07761Z" fill="white"/>
<path d="M15.5001 21.1364C18.613 21.1364 21.1365 18.6129 21.1365 15.5C21.1365 12.3871 18.613 9.86365 15.5001 9.86365C12.3873 9.86365 9.86377 12.3871 9.86377 15.5C9.86377 18.6129 12.3873 21.1364 15.5001 21.1364Z" fill="white"/>
</svg>
