<svg width="37" height="31" viewBox="0 0 37 31" fill="none" xmlns="http://www.w3.org/2000/svg">
<path d="M37 3.64706C35.6381 4.28529 34.1702 4.70471 32.6491 4.90529C34.2055 3.93882 35.4082 2.40706 35.9742 0.565294C34.5062 1.47706 32.8791 2.11529 31.1635 2.48C29.7663 0.911765 27.8031 0 25.5746 0C21.4183 0 18.0225 3.50118 18.0225 7.82294C18.0225 8.44294 18.0932 9.04471 18.217 9.61C11.9207 9.28176 6.31405 6.16353 2.58222 1.44059C1.92782 2.58941 1.55641 3.93882 1.55641 5.36118C1.55641 8.07824 2.88289 10.4853 4.93451 11.8529C3.67878 11.8529 2.51147 11.4882 1.48566 10.9412V10.9959C1.48566 14.7888 4.10325 17.9618 7.56979 18.6729C6.45683 18.987 5.28841 19.0307 4.15631 18.8006C4.63668 20.3551 5.57748 21.7153 6.84644 22.69C8.11541 23.6648 9.64874 24.205 11.2309 24.2347C8.54896 26.4237 5.22456 27.607 1.80402 27.59C1.20268 27.59 0.601338 27.5535 0 27.4806C3.36042 29.7053 7.35755 31 11.6377 31C25.5746 31 33.2328 19.0741 33.2328 8.73471C33.2328 8.38824 33.2328 8.06 33.2151 7.71353C34.7008 6.61941 35.9742 5.23353 37 3.64706Z" fill="white"/>
</svg>
