<?xml version="1.0" encoding="UTF-8"?>
<svg xmlns="http://www.w3.org/2000/svg" width="760.02" height="1280" xmlns:xlink="http://www.w3.org/1999/xlink" viewBox="0 0 760.02 1280">
  <defs>
    <style>
      .y {
        fill: #fff;
      }

      .z {
        clip-path: url(#j);
      }

      .aa {
        clip-path: url(#t);
      }

      .ab {
        clip-path: url(#g);
      }

      .ac {
        clip-path: url(#r);
      }

      .ad {
        clip-path: url(#p);
      }

      .ae {
        clip-path: url(#m);
      }

      .af {
        clip-path: url(#i);
      }

      .ag {
        fill: #111;
      }

      .ah {
        clip-path: url(#f);
      }

      .ai {
        clip-path: url(#l);
      }

      .aj {
        clip-path: url(#o);
      }

      .ak {
        clip-path: url(#n);
      }

      .al {
        clip-path: url(#q);
      }

      .am {
        clip-path: url(#k);
      }

      .an {
        fill: none;
      }

      .ao {
        clip-path: url(#u);
      }

      .ap {
        clip-path: url(#s);
      }

      .aq {
        clip-path: url(#h);
      }
    </style>
    <clipPath id="f">
      <rect x=".18" y="-.05" width="190" height="320"/>
    </clipPath>
    <clipPath id="g">
      <rect x="190.18" y="-.05" width="190" height="320"/>
    </clipPath>
    <clipPath id="h">
      <rect x=".18" y="319.95" width="190" height="320"/>
    </clipPath>
    <clipPath id="i">
      <rect x="190.18" y="319.95" width="190" height="320"/>
    </clipPath>
    <clipPath id="j">
      <rect x="380.01" y="-.05" width="190" height="320"/>
    </clipPath>
    <clipPath id="k">
      <rect x="570.01" y="-.05" width="190" height="320"/>
    </clipPath>
    <clipPath id="l">
      <rect x="380.01" y="319.95" width="190" height="320"/>
    </clipPath>
    <clipPath id="m">
      <rect x="570.01" y="319.95" width="190" height="320"/>
    </clipPath>
    <clipPath id="n">
      <rect x=".18" y="640" width="190" height="320"/>
    </clipPath>
    <clipPath id="o">
      <rect x="190.18" y="640" width="190" height="320"/>
    </clipPath>
    <clipPath id="p">
      <rect x=".18" y="960" width="190" height="320"/>
    </clipPath>
    <clipPath id="q">
      <rect x="190.18" y="960" width="190" height="320"/>
    </clipPath>
    <clipPath id="r">
      <rect x="380.01" y="640" width="190" height="320"/>
    </clipPath>
    <clipPath id="s">
      <rect x="570.01" y="640" width="190" height="320"/>
    </clipPath>
    <clipPath id="t">
      <rect x="380.01" y="960" width="190" height="320"/>
    </clipPath>
    <clipPath id="u">
      <rect x="570.01" y="960" width="190" height="320"/>
    </clipPath>
  </defs>
  <g id="d" data-name="Layer 5">
    <rect class="ag" x="2880.17" y="-1250.83" width="1200" height="628"/>
  </g>
  <g id="e" data-name="Layer 8">
    <g>
      <rect x=".18" y="-.05" width="190" height="320"/>
      <g class="ah">
        <rect class="an" x=".18" y="-.05" width="190" height="320"/>
        <g>
          <polygon class="y" points="139.18 353.46 156.55 343.43 182.87 358.63 152.35 376.26 186.18 395.79 186.18 341.52 139.18 314.39 139.18 353.46"/>
          <polygon class="y" points="204.18 288.68 204.18 315.95 176.18 315.95 176.18 288.28 142.75 307.51 189.82 334.6 236.9 307.51 204.18 288.68"/>
          <polygon class="y" points="184.18 283.5 184.18 307.95 196.18 307.95 196.18 283.91 196.18 263.95 205.31 263.95 189.83 243.79 174.33 263.95 184.18 263.95 184.18 283.5"/>
        </g>
        <g>
          <polygon class="y" points="14.18 288.68 14.18 315.95 -13.82 315.95 -13.82 288.28 -47.25 307.51 -.18 334.6 46.9 307.51 14.18 288.68"/>
          <polygon class="y" points="33.8 343.43 51.18 353.46 51.18 314.38 4.18 341.52 4.18 395.8 38.01 376.26 7.47 358.63 33.8 343.43"/>
          <polygon class="y" points="-5.82 283.5 -5.82 307.95 6.18 307.95 6.18 283.91 6.18 263.95 15.31 263.95 -.17 243.79 -15.67 263.95 -5.82 263.95 -5.82 283.5"/>
        </g>
        <g>
          <polygon class="y" points="44.18 193.46 61.55 183.43 87.87 198.63 57.35 216.26 91.18 235.79 91.18 181.52 44.18 154.39 44.18 193.46"/>
          <polygon class="y" points="109.18 128.68 109.18 155.95 81.18 155.95 81.18 128.28 47.75 147.51 94.82 174.6 141.9 147.51 109.18 128.68"/>
          <polygon class="y" points="128.8 183.43 146.18 193.46 146.18 154.38 99.18 181.52 99.18 235.8 133.01 216.26 102.47 198.63 128.8 183.43"/>
          <polygon class="y" points="178.6 227.82 174.21 209.59 165.85 214.42 145.88 202.89 128.54 192.88 123.31 195.9 118.08 198.92 140.65 211.95 140.65 211.95 155.39 220.46 147.2 225.19 178.6 227.82"/>
          <polygon class="y" points="71.93 198.62 66.7 195.61 61.47 192.58 44.12 202.6 24.15 214.13 15.8 209.3 11.4 227.53 42.81 224.9 34.62 220.17 49.35 211.66 71.93 198.62"/>
          <polygon class="y" points="89.18 123.5 89.18 147.95 101.18 147.95 101.18 123.91 101.18 103.95 110.31 103.95 94.83 83.79 79.33 103.95 89.18 103.95 89.18 123.5"/>
        </g>
        <g>
          <polygon class="y" points="139.18 33.46 156.55 23.43 182.87 38.63 152.35 56.26 186.18 75.79 186.18 21.52 139.18 -5.61 139.18 33.46"/>
          <polygon class="y" points="204.18 -31.32 204.18 -4.05 176.18 -4.05 176.18 -31.72 142.75 -12.49 189.82 14.6 236.9 -12.49 204.18 -31.32"/>
          <polygon class="y" points="166.93 38.62 161.7 35.61 156.47 32.58 139.12 42.6 119.15 54.13 110.8 49.3 106.4 67.53 137.81 64.9 129.62 60.17 144.35 51.66 166.93 38.62"/>
        </g>
        <g>
          <polygon class="y" points="14.18 -31.32 14.18 -4.05 -13.82 -4.05 -13.82 -31.72 -47.25 -12.49 -.18 14.6 46.9 -12.49 14.18 -31.32"/>
          <polygon class="y" points="33.8 23.43 51.18 33.46 51.18 -5.62 4.18 21.52 4.18 75.8 38.01 56.26 7.47 38.63 33.8 23.43"/>
          <polygon class="y" points="83.6 67.82 79.21 49.59 70.85 54.42 50.88 42.89 33.54 32.88 28.31 35.9 23.08 38.92 45.65 51.95 45.65 51.95 60.39 60.46 52.2 65.19 83.6 67.82"/>
        </g>
      </g>
    </g>
    <g>
      <rect x="190.18" y="-.05" width="190" height="320"/>
      <g class="ab">
        <rect class="an" x="190.18" y="-.05" width="190" height="320"/>
        <g>
          <polygon class="y" points="329.18 353.46 346.55 343.43 372.87 358.63 342.35 376.26 376.18 395.79 376.18 341.52 329.18 314.39 329.18 353.46"/>
          <polygon class="y" points="394.18 288.68 394.18 315.95 366.18 315.95 366.18 288.28 332.75 307.51 379.82 334.6 426.9 307.51 394.18 288.68"/>
          <polygon class="y" points="374.18 283.5 374.18 307.95 386.18 307.95 386.18 283.91 386.18 263.95 395.31 263.95 379.83 243.79 364.33 263.95 374.18 263.95 374.18 283.5"/>
        </g>
        <g>
          <polygon class="y" points="204.18 288.68 204.18 315.95 176.18 315.95 176.18 288.28 142.75 307.51 189.82 334.6 236.9 307.51 204.18 288.68"/>
          <polygon class="y" points="223.8 343.43 241.18 353.46 241.18 314.38 194.18 341.52 194.18 395.8 228.01 376.26 197.47 358.63 223.8 343.43"/>
          <polygon class="y" points="184.18 283.5 184.18 307.95 196.18 307.95 196.18 283.91 196.18 263.95 205.31 263.95 189.83 243.79 174.33 263.95 184.18 263.95 184.18 283.5"/>
        </g>
        <g>
          <polygon class="y" points="234.18 193.46 251.55 183.43 277.87 198.63 247.35 216.26 281.18 235.79 281.18 181.52 234.18 154.39 234.18 193.46"/>
          <polygon class="y" points="299.18 128.68 299.18 155.95 271.18 155.95 271.18 128.28 237.75 147.51 284.82 174.6 331.9 147.51 299.18 128.68"/>
          <polygon class="y" points="318.8 183.43 336.18 193.46 336.18 154.38 289.18 181.52 289.18 235.8 323.01 216.26 292.47 198.63 318.8 183.43"/>
          <polygon class="y" points="368.6 227.82 364.21 209.59 355.85 214.42 335.88 202.89 318.54 192.88 313.31 195.9 308.08 198.92 330.65 211.95 330.65 211.95 345.39 220.46 337.2 225.19 368.6 227.82"/>
          <polygon class="y" points="261.93 198.62 256.7 195.61 251.47 192.58 234.12 202.6 214.15 214.13 205.8 209.3 201.4 227.53 232.81 224.9 224.62 220.17 239.35 211.66 261.93 198.62"/>
          <polygon class="y" points="279.18 123.5 279.18 147.95 291.18 147.95 291.18 123.91 291.18 103.95 300.31 103.95 284.83 83.79 269.33 103.95 279.18 103.95 279.18 123.5"/>
        </g>
        <g>
          <polygon class="y" points="329.18 33.46 346.55 23.43 372.87 38.63 342.35 56.26 376.18 75.79 376.18 21.52 329.18 -5.61 329.18 33.46"/>
          <polygon class="y" points="394.18 -31.32 394.18 -4.05 366.18 -4.05 366.18 -31.72 332.75 -12.49 379.82 14.6 426.9 -12.49 394.18 -31.32"/>
          <polygon class="y" points="356.93 38.62 351.7 35.61 346.47 32.58 329.12 42.6 309.15 54.13 300.8 49.3 296.4 67.53 327.81 64.9 319.62 60.17 334.35 51.66 356.93 38.62"/>
        </g>
        <g>
          <polygon class="y" points="204.18 -31.32 204.18 -4.05 176.18 -4.05 176.18 -31.72 142.75 -12.49 189.82 14.6 236.9 -12.49 204.18 -31.32"/>
          <polygon class="y" points="223.8 23.43 241.18 33.46 241.18 -5.62 194.18 21.52 194.18 75.8 228.01 56.26 197.47 38.63 223.8 23.43"/>
          <polygon class="y" points="273.6 67.82 269.21 49.59 260.85 54.42 240.88 42.89 223.54 32.88 218.31 35.9 213.08 38.92 235.65 51.95 235.65 51.95 250.39 60.46 242.2 65.19 273.6 67.82"/>
        </g>
      </g>
    </g>
    <g>
      <rect x=".18" y="319.95" width="190" height="320"/>
      <g class="aq">
        <rect class="an" x=".18" y="319.95" width="190" height="320"/>
        <g>
          <polygon class="y" points="139.18 673.46 156.55 663.43 182.87 678.63 152.35 696.26 186.18 715.79 186.18 661.52 139.18 634.39 139.18 673.46"/>
          <polygon class="y" points="204.18 608.68 204.18 635.95 176.18 635.95 176.18 608.28 142.75 627.51 189.82 654.6 236.9 627.51 204.18 608.68"/>
          <polygon class="y" points="184.18 603.5 184.18 627.95 196.18 627.95 196.18 603.91 196.18 583.95 205.31 583.95 189.83 563.79 174.33 583.95 184.18 583.95 184.18 603.5"/>
        </g>
        <g>
          <polygon class="y" points="14.18 608.68 14.18 635.95 -13.82 635.95 -13.82 608.28 -47.25 627.51 -.18 654.6 46.9 627.51 14.18 608.68"/>
          <polygon class="y" points="33.8 663.43 51.18 673.46 51.18 634.38 4.18 661.52 4.18 715.8 38.01 696.26 7.47 678.63 33.8 663.43"/>
          <polygon class="y" points="-5.82 603.5 -5.82 627.95 6.18 627.95 6.18 603.91 6.18 583.95 15.31 583.95 -.17 563.79 -15.67 583.95 -5.82 583.95 -5.82 603.5"/>
        </g>
        <g>
          <polygon class="y" points="44.18 513.46 61.55 503.43 87.87 518.63 57.35 536.26 91.18 555.79 91.18 501.52 44.18 474.39 44.18 513.46"/>
          <polygon class="y" points="109.18 448.68 109.18 475.95 81.18 475.95 81.18 448.28 47.75 467.51 94.82 494.6 141.9 467.51 109.18 448.68"/>
          <polygon class="y" points="128.8 503.43 146.18 513.46 146.18 474.38 99.18 501.52 99.18 555.8 133.01 536.26 102.47 518.63 128.8 503.43"/>
          <polygon class="y" points="178.6 547.82 174.21 529.59 165.85 534.42 145.88 522.89 128.54 512.88 123.31 515.9 118.08 518.92 140.65 531.95 140.65 531.95 155.39 540.46 147.2 545.19 178.6 547.82"/>
          <polygon class="y" points="71.93 518.62 66.7 515.61 61.47 512.58 44.12 522.6 24.15 534.13 15.8 529.3 11.4 547.53 42.81 544.9 34.62 540.17 49.35 531.66 71.93 518.62"/>
          <polygon class="y" points="89.18 443.5 89.18 467.95 101.18 467.95 101.18 443.91 101.18 423.95 110.31 423.95 94.83 403.79 79.33 423.95 89.18 423.95 89.18 443.5"/>
        </g>
        <g>
          <polygon class="y" points="139.18 353.46 156.55 343.43 182.87 358.63 152.35 376.26 186.18 395.79 186.18 341.52 139.18 314.39 139.18 353.46"/>
          <polygon class="y" points="204.18 288.68 204.18 315.95 176.18 315.95 176.18 288.28 142.75 307.51 189.82 334.6 236.9 307.51 204.18 288.68"/>
          <polygon class="y" points="166.93 358.62 161.7 355.61 156.47 352.58 139.12 362.6 119.15 374.13 110.8 369.3 106.4 387.53 137.81 384.9 129.62 380.17 144.35 371.66 166.93 358.62"/>
        </g>
        <g>
          <polygon class="y" points="14.18 288.68 14.18 315.95 -13.82 315.95 -13.82 288.28 -47.25 307.51 -.18 334.6 46.9 307.51 14.18 288.68"/>
          <polygon class="y" points="33.8 343.43 51.18 353.46 51.18 314.38 4.18 341.52 4.18 395.8 38.01 376.26 7.47 358.63 33.8 343.43"/>
          <polygon class="y" points="83.6 387.82 79.21 369.59 70.85 374.42 50.88 362.89 33.54 352.88 28.31 355.9 23.08 358.92 45.65 371.95 45.65 371.95 60.39 380.46 52.2 385.19 83.6 387.82"/>
        </g>
      </g>
    </g>
    <g>
      <rect x="190.18" y="319.95" width="190" height="320"/>
      <g class="af">
        <rect class="an" x="190.18" y="319.95" width="190" height="320"/>
        <g>
          <polygon class="y" points="329.18 673.46 346.55 663.43 372.87 678.63 342.35 696.26 376.18 715.79 376.18 661.52 329.18 634.39 329.18 673.46"/>
          <polygon class="y" points="394.18 608.68 394.18 635.95 366.18 635.95 366.18 608.28 332.75 627.51 379.82 654.6 426.9 627.51 394.18 608.68"/>
          <polygon class="y" points="374.18 603.5 374.18 627.95 386.18 627.95 386.18 603.91 386.18 583.95 395.31 583.95 379.83 563.79 364.33 583.95 374.18 583.95 374.18 603.5"/>
        </g>
        <g>
          <polygon class="y" points="204.18 608.68 204.18 635.95 176.18 635.95 176.18 608.28 142.75 627.51 189.82 654.6 236.9 627.51 204.18 608.68"/>
          <polygon class="y" points="223.8 663.43 241.18 673.46 241.18 634.38 194.18 661.52 194.18 715.8 228.01 696.26 197.47 678.63 223.8 663.43"/>
          <polygon class="y" points="184.18 603.5 184.18 627.95 196.18 627.95 196.18 603.91 196.18 583.95 205.31 583.95 189.83 563.79 174.33 583.95 184.18 583.95 184.18 603.5"/>
        </g>
        <g>
          <polygon class="y" points="234.18 513.46 251.55 503.43 277.87 518.63 247.35 536.26 281.18 555.79 281.18 501.52 234.18 474.39 234.18 513.46"/>
          <polygon class="y" points="299.18 448.68 299.18 475.95 271.18 475.95 271.18 448.28 237.75 467.51 284.82 494.6 331.9 467.51 299.18 448.68"/>
          <polygon class="y" points="318.8 503.43 336.18 513.46 336.18 474.38 289.18 501.52 289.18 555.8 323.01 536.26 292.47 518.63 318.8 503.43"/>
          <polygon class="y" points="368.6 547.82 364.21 529.59 355.85 534.42 335.88 522.89 318.54 512.88 313.31 515.9 308.08 518.92 330.65 531.95 330.65 531.95 345.39 540.46 337.2 545.19 368.6 547.82"/>
          <polygon class="y" points="261.93 518.62 256.7 515.61 251.47 512.58 234.12 522.6 214.15 534.13 205.8 529.3 201.4 547.53 232.81 544.9 224.62 540.17 239.35 531.66 261.93 518.62"/>
          <polygon class="y" points="279.18 443.5 279.18 467.95 291.18 467.95 291.18 443.91 291.18 423.95 300.31 423.95 284.83 403.79 269.33 423.95 279.18 423.95 279.18 443.5"/>
        </g>
        <g>
          <polygon class="y" points="329.18 353.46 346.55 343.43 372.87 358.63 342.35 376.26 376.18 395.79 376.18 341.52 329.18 314.39 329.18 353.46"/>
          <polygon class="y" points="394.18 288.68 394.18 315.95 366.18 315.95 366.18 288.28 332.75 307.51 379.82 334.6 426.9 307.51 394.18 288.68"/>
          <polygon class="y" points="356.93 358.62 351.7 355.61 346.47 352.58 329.12 362.6 309.15 374.13 300.8 369.3 296.4 387.53 327.81 384.9 319.62 380.17 334.35 371.66 356.93 358.62"/>
        </g>
        <g>
          <polygon class="y" points="204.18 288.68 204.18 315.95 176.18 315.95 176.18 288.28 142.75 307.51 189.82 334.6 236.9 307.51 204.18 288.68"/>
          <polygon class="y" points="223.8 343.43 241.18 353.46 241.18 314.38 194.18 341.52 194.18 395.8 228.01 376.26 197.47 358.63 223.8 343.43"/>
          <polygon class="y" points="273.6 387.82 269.21 369.59 260.85 374.42 240.88 362.89 223.54 352.88 218.31 355.9 213.08 358.92 235.65 371.95 235.65 371.95 250.39 380.46 242.2 385.19 273.6 387.82"/>
        </g>
      </g>
    </g>
    <g>
      <rect x="380.01" y="-.05" width="190" height="320"/>
      <g class="z">
        <rect class="an" x="380.01" y="-.05" width="190" height="320"/>
        <g>
          <polygon class="y" points="519.01 353.46 536.38 343.43 562.71 358.63 532.18 376.26 566.01 395.79 566.01 341.52 519.01 314.39 519.01 353.46"/>
          <polygon class="y" points="584.01 288.68 584.01 315.95 556.01 315.95 556.01 288.28 522.58 307.51 569.66 334.6 616.73 307.51 584.01 288.68"/>
          <polygon class="y" points="564.01 283.5 564.01 307.95 576.01 307.95 576.01 283.91 576.01 263.95 585.14 263.95 569.66 243.79 554.17 263.95 564.01 263.95 564.01 283.5"/>
        </g>
        <g>
          <polygon class="y" points="394.01 288.68 394.01 315.95 366.01 315.95 366.01 288.28 332.58 307.51 379.66 334.6 426.73 307.51 394.01 288.68"/>
          <polygon class="y" points="413.63 343.43 431.01 353.46 431.01 314.38 384.01 341.52 384.01 395.8 417.84 376.26 387.31 358.63 413.63 343.43"/>
          <polygon class="y" points="374.01 283.5 374.01 307.95 386.01 307.95 386.01 283.91 386.01 263.95 395.14 263.95 379.66 243.79 364.17 263.95 374.01 263.95 374.01 283.5"/>
        </g>
        <g>
          <polygon class="y" points="424.01 193.46 441.38 183.43 467.71 198.63 437.18 216.26 471.01 235.79 471.01 181.52 424.01 154.39 424.01 193.46"/>
          <polygon class="y" points="489.01 128.68 489.01 155.95 461.01 155.95 461.01 128.28 427.58 147.51 474.66 174.6 521.73 147.51 489.01 128.68"/>
          <polygon class="y" points="508.63 183.43 526.01 193.46 526.01 154.38 479.01 181.52 479.01 235.8 512.84 216.26 482.31 198.63 508.63 183.43"/>
          <polygon class="y" points="558.44 227.82 554.05 209.59 545.69 214.42 525.71 202.89 508.37 192.88 503.14 195.9 497.91 198.92 520.48 211.95 520.48 211.95 535.23 220.46 527.03 225.19 558.44 227.82"/>
          <polygon class="y" points="451.76 198.62 446.53 195.61 441.3 192.58 423.95 202.6 403.98 214.13 395.63 209.3 391.23 227.53 422.64 224.9 414.45 220.17 429.19 211.66 451.76 198.62"/>
          <polygon class="y" points="469.01 123.5 469.01 147.95 481.01 147.95 481.01 123.91 481.01 103.95 490.14 103.95 474.66 83.79 459.17 103.95 469.01 103.95 469.01 123.5"/>
        </g>
        <g>
          <polygon class="y" points="519.01 33.46 536.38 23.43 562.71 38.63 532.18 56.26 566.01 75.79 566.01 21.52 519.01 -5.61 519.01 33.46"/>
          <polygon class="y" points="584.01 -31.32 584.01 -4.05 556.01 -4.05 556.01 -31.72 522.58 -12.49 569.66 14.6 616.73 -12.49 584.01 -31.32"/>
          <polygon class="y" points="546.76 38.62 541.53 35.61 536.3 32.58 518.95 42.6 498.98 54.13 490.63 49.3 486.23 67.53 517.64 64.9 509.45 60.17 524.19 51.66 546.76 38.62"/>
        </g>
        <g>
          <polygon class="y" points="394.01 -31.32 394.01 -4.05 366.01 -4.05 366.01 -31.72 332.58 -12.49 379.66 14.6 426.73 -12.49 394.01 -31.32"/>
          <polygon class="y" points="413.63 23.43 431.01 33.46 431.01 -5.62 384.01 21.52 384.01 75.8 417.84 56.26 387.31 38.63 413.63 23.43"/>
          <polygon class="y" points="463.44 67.82 459.05 49.59 450.69 54.42 430.71 42.89 413.37 32.88 408.14 35.9 402.91 38.92 425.48 51.95 425.48 51.95 440.23 60.46 432.03 65.19 463.44 67.82"/>
        </g>
      </g>
    </g>
    <g>
      <rect x="570.01" y="-.05" width="190" height="320"/>
      <g class="am">
        <rect class="an" x="570.01" y="-.05" width="190" height="320"/>
        <g>
          <polygon class="y" points="709.01 353.46 726.38 343.43 752.71 358.63 722.18 376.26 756.01 395.79 756.01 341.52 709.01 314.39 709.01 353.46"/>
          <polygon class="y" points="774.01 288.68 774.01 315.95 746.01 315.95 746.01 288.28 712.58 307.51 759.66 334.6 806.73 307.51 774.01 288.68"/>
          <polygon class="y" points="754.01 283.5 754.01 307.95 766.01 307.95 766.01 283.91 766.01 263.95 775.14 263.95 759.66 243.79 744.17 263.95 754.01 263.95 754.01 283.5"/>
        </g>
        <g>
          <polygon class="y" points="584.01 288.68 584.01 315.95 556.01 315.95 556.01 288.28 522.58 307.51 569.66 334.6 616.73 307.51 584.01 288.68"/>
          <polygon class="y" points="603.63 343.43 621.01 353.46 621.01 314.38 574.01 341.52 574.01 395.8 607.84 376.26 577.31 358.63 603.63 343.43"/>
          <polygon class="y" points="564.01 283.5 564.01 307.95 576.01 307.95 576.01 283.91 576.01 263.95 585.14 263.95 569.66 243.79 554.17 263.95 564.01 263.95 564.01 283.5"/>
        </g>
        <g>
          <polygon class="y" points="614.01 193.46 631.38 183.43 657.71 198.63 627.18 216.26 661.01 235.79 661.01 181.52 614.01 154.39 614.01 193.46"/>
          <polygon class="y" points="679.01 128.68 679.01 155.95 651.01 155.95 651.01 128.28 617.58 147.51 664.66 174.6 711.73 147.51 679.01 128.68"/>
          <polygon class="y" points="698.63 183.43 716.01 193.46 716.01 154.38 669.01 181.52 669.01 235.8 702.84 216.26 672.31 198.63 698.63 183.43"/>
          <polygon class="y" points="748.44 227.82 744.05 209.59 735.69 214.42 715.71 202.89 698.37 192.88 693.14 195.9 687.91 198.92 710.48 211.95 710.48 211.95 725.23 220.46 717.03 225.19 748.44 227.82"/>
          <polygon class="y" points="641.76 198.62 636.53 195.61 631.3 192.58 613.95 202.6 593.98 214.13 585.63 209.3 581.23 227.53 612.64 224.9 604.45 220.17 619.19 211.66 641.76 198.62"/>
          <polygon class="y" points="659.01 123.5 659.01 147.95 671.01 147.95 671.01 123.91 671.01 103.95 680.14 103.95 664.66 83.79 649.17 103.95 659.01 103.95 659.01 123.5"/>
        </g>
        <g>
          <polygon class="y" points="709.01 33.46 726.38 23.43 752.71 38.63 722.18 56.26 756.01 75.79 756.01 21.52 709.01 -5.61 709.01 33.46"/>
          <polygon class="y" points="774.01 -31.32 774.01 -4.05 746.01 -4.05 746.01 -31.72 712.58 -12.49 759.66 14.6 806.73 -12.49 774.01 -31.32"/>
          <polygon class="y" points="736.76 38.62 731.53 35.61 726.3 32.58 708.95 42.6 688.98 54.13 680.63 49.3 676.23 67.53 707.64 64.9 699.45 60.17 714.19 51.66 736.76 38.62"/>
        </g>
        <g>
          <polygon class="y" points="584.01 -31.32 584.01 -4.05 556.01 -4.05 556.01 -31.72 522.58 -12.49 569.66 14.6 616.73 -12.49 584.01 -31.32"/>
          <polygon class="y" points="603.63 23.43 621.01 33.46 621.01 -5.62 574.01 21.52 574.01 75.8 607.84 56.26 577.31 38.63 603.63 23.43"/>
          <polygon class="y" points="653.44 67.82 649.05 49.59 640.69 54.42 620.71 42.89 603.37 32.88 598.14 35.9 592.91 38.92 615.48 51.95 615.48 51.95 630.23 60.46 622.03 65.19 653.44 67.82"/>
        </g>
      </g>
    </g>
    <g>
      <rect x="380.01" y="319.95" width="190" height="320"/>
      <g class="ai">
        <rect class="an" x="380.01" y="319.95" width="190" height="320"/>
        <g>
          <polygon class="y" points="519.01 673.46 536.38 663.43 562.71 678.63 532.18 696.26 566.01 715.79 566.01 661.52 519.01 634.39 519.01 673.46"/>
          <polygon class="y" points="584.01 608.68 584.01 635.95 556.01 635.95 556.01 608.28 522.58 627.51 569.66 654.6 616.73 627.51 584.01 608.68"/>
          <polygon class="y" points="564.01 603.5 564.01 627.95 576.01 627.95 576.01 603.91 576.01 583.95 585.14 583.95 569.66 563.79 554.17 583.95 564.01 583.95 564.01 603.5"/>
        </g>
        <g>
          <polygon class="y" points="394.01 608.68 394.01 635.95 366.01 635.95 366.01 608.28 332.58 627.51 379.66 654.6 426.73 627.51 394.01 608.68"/>
          <polygon class="y" points="413.63 663.43 431.01 673.46 431.01 634.38 384.01 661.52 384.01 715.8 417.84 696.26 387.31 678.63 413.63 663.43"/>
          <polygon class="y" points="374.01 603.5 374.01 627.95 386.01 627.95 386.01 603.91 386.01 583.95 395.14 583.95 379.66 563.79 364.17 583.95 374.01 583.95 374.01 603.5"/>
        </g>
        <g>
          <polygon class="y" points="424.01 513.46 441.38 503.43 467.71 518.63 437.18 536.26 471.01 555.79 471.01 501.52 424.01 474.39 424.01 513.46"/>
          <polygon class="y" points="489.01 448.68 489.01 475.95 461.01 475.95 461.01 448.28 427.58 467.51 474.66 494.6 521.73 467.51 489.01 448.68"/>
          <polygon class="y" points="508.63 503.43 526.01 513.46 526.01 474.38 479.01 501.52 479.01 555.8 512.84 536.26 482.31 518.63 508.63 503.43"/>
          <polygon class="y" points="558.44 547.82 554.05 529.59 545.69 534.42 525.71 522.89 508.37 512.88 503.14 515.9 497.91 518.92 520.48 531.95 520.48 531.95 535.23 540.46 527.03 545.19 558.44 547.82"/>
          <polygon class="y" points="451.76 518.62 446.53 515.61 441.3 512.58 423.95 522.6 403.98 534.13 395.63 529.3 391.23 547.53 422.64 544.9 414.45 540.17 429.19 531.66 451.76 518.62"/>
          <polygon class="y" points="469.01 443.5 469.01 467.95 481.01 467.95 481.01 443.91 481.01 423.95 490.14 423.95 474.66 403.79 459.17 423.95 469.01 423.95 469.01 443.5"/>
        </g>
        <g>
          <polygon class="y" points="519.01 353.46 536.38 343.43 562.71 358.63 532.18 376.26 566.01 395.79 566.01 341.52 519.01 314.39 519.01 353.46"/>
          <polygon class="y" points="584.01 288.68 584.01 315.95 556.01 315.95 556.01 288.28 522.58 307.51 569.66 334.6 616.73 307.51 584.01 288.68"/>
          <polygon class="y" points="546.76 358.62 541.53 355.61 536.3 352.58 518.95 362.6 498.98 374.13 490.63 369.3 486.23 387.53 517.64 384.9 509.45 380.17 524.19 371.66 546.76 358.62"/>
        </g>
        <g>
          <polygon class="y" points="394.01 288.68 394.01 315.95 366.01 315.95 366.01 288.28 332.58 307.51 379.66 334.6 426.73 307.51 394.01 288.68"/>
          <polygon class="y" points="413.63 343.43 431.01 353.46 431.01 314.38 384.01 341.52 384.01 395.8 417.84 376.26 387.31 358.63 413.63 343.43"/>
          <polygon class="y" points="463.44 387.82 459.05 369.59 450.69 374.42 430.71 362.89 413.37 352.88 408.14 355.9 402.91 358.92 425.48 371.95 425.48 371.95 440.23 380.46 432.03 385.19 463.44 387.82"/>
        </g>
      </g>
    </g>
    <g>
      <rect x="570.01" y="319.95" width="190" height="320"/>
      <g class="ae">
        <rect class="an" x="570.01" y="319.95" width="190" height="320"/>
        <g>
          <polygon class="y" points="709.01 673.46 726.38 663.43 752.71 678.63 722.18 696.26 756.01 715.79 756.01 661.52 709.01 634.39 709.01 673.46"/>
          <polygon class="y" points="774.01 608.68 774.01 635.95 746.01 635.95 746.01 608.28 712.58 627.51 759.66 654.6 806.73 627.51 774.01 608.68"/>
          <polygon class="y" points="754.01 603.5 754.01 627.95 766.01 627.95 766.01 603.91 766.01 583.95 775.14 583.95 759.66 563.79 744.17 583.95 754.01 583.95 754.01 603.5"/>
        </g>
        <g>
          <polygon class="y" points="584.01 608.68 584.01 635.95 556.01 635.95 556.01 608.28 522.58 627.51 569.66 654.6 616.73 627.51 584.01 608.68"/>
          <polygon class="y" points="603.63 663.43 621.01 673.46 621.01 634.38 574.01 661.52 574.01 715.8 607.84 696.26 577.31 678.63 603.63 663.43"/>
          <polygon class="y" points="564.01 603.5 564.01 627.95 576.01 627.95 576.01 603.91 576.01 583.95 585.14 583.95 569.66 563.79 554.17 583.95 564.01 583.95 564.01 603.5"/>
        </g>
        <g>
          <polygon class="y" points="614.01 513.46 631.38 503.43 657.71 518.63 627.18 536.26 661.01 555.79 661.01 501.52 614.01 474.39 614.01 513.46"/>
          <polygon class="y" points="679.01 448.68 679.01 475.95 651.01 475.95 651.01 448.28 617.58 467.51 664.66 494.6 711.73 467.51 679.01 448.68"/>
          <polygon class="y" points="698.63 503.43 716.01 513.46 716.01 474.38 669.01 501.52 669.01 555.8 702.84 536.26 672.31 518.63 698.63 503.43"/>
          <polygon class="y" points="748.44 547.82 744.05 529.59 735.69 534.42 715.71 522.89 698.37 512.88 693.14 515.9 687.91 518.92 710.48 531.95 710.48 531.95 725.23 540.46 717.03 545.19 748.44 547.82"/>
          <polygon class="y" points="641.76 518.62 636.53 515.61 631.3 512.58 613.95 522.6 593.98 534.13 585.63 529.3 581.23 547.53 612.64 544.9 604.45 540.17 619.19 531.66 641.76 518.62"/>
          <polygon class="y" points="659.01 443.5 659.01 467.95 671.01 467.95 671.01 443.91 671.01 423.95 680.14 423.95 664.66 403.79 649.17 423.95 659.01 423.95 659.01 443.5"/>
        </g>
        <g>
          <polygon class="y" points="709.01 353.46 726.38 343.43 752.71 358.63 722.18 376.26 756.01 395.79 756.01 341.52 709.01 314.39 709.01 353.46"/>
          <polygon class="y" points="774.01 288.68 774.01 315.95 746.01 315.95 746.01 288.28 712.58 307.51 759.66 334.6 806.73 307.51 774.01 288.68"/>
          <polygon class="y" points="736.76 358.62 731.53 355.61 726.3 352.58 708.95 362.6 688.98 374.13 680.63 369.3 676.23 387.53 707.64 384.9 699.45 380.17 714.19 371.66 736.76 358.62"/>
        </g>
        <g>
          <polygon class="y" points="584.01 288.68 584.01 315.95 556.01 315.95 556.01 288.28 522.58 307.51 569.66 334.6 616.73 307.51 584.01 288.68"/>
          <polygon class="y" points="603.63 343.43 621.01 353.46 621.01 314.38 574.01 341.52 574.01 395.8 607.84 376.26 577.31 358.63 603.63 343.43"/>
          <polygon class="y" points="653.44 387.82 649.05 369.59 640.69 374.42 620.71 362.89 603.37 352.88 598.14 355.9 592.91 358.92 615.48 371.95 615.48 371.95 630.23 380.46 622.03 385.19 653.44 387.82"/>
        </g>
      </g>
    </g>
    <g>
      <rect x=".18" y="640" width="190" height="320"/>
      <g class="ak">
        <rect class="an" x=".18" y="640" width="190" height="320"/>
        <g>
          <polygon class="y" points="139.18 993.52 156.55 983.48 182.87 998.68 152.35 1016.31 186.18 1035.84 186.18 981.58 139.18 954.44 139.18 993.52"/>
          <polygon class="y" points="204.18 928.74 204.18 956 176.18 956 176.18 928.33 142.75 947.57 189.82 974.66 236.9 947.57 204.18 928.74"/>
          <polygon class="y" points="184.18 923.56 184.18 948 196.18 948 196.18 923.96 196.18 904 205.31 904 189.83 883.84 174.33 904 184.18 904 184.18 923.56"/>
        </g>
        <g>
          <polygon class="y" points="14.18 928.74 14.18 956 -13.82 956 -13.82 928.33 -47.25 947.57 -.18 974.66 46.9 947.57 14.18 928.74"/>
          <polygon class="y" points="33.8 983.48 51.18 993.51 51.18 954.44 4.18 981.57 4.18 1035.85 38.01 1016.32 7.47 998.68 33.8 983.48"/>
          <polygon class="y" points="-5.82 923.56 -5.82 948 6.18 948 6.18 923.96 6.18 904 15.31 904 -.17 883.84 -15.67 904 -5.82 904 -5.82 923.56"/>
        </g>
        <g>
          <polygon class="y" points="44.18 833.52 61.55 823.48 87.87 838.68 57.35 856.31 91.18 875.84 91.18 821.58 44.18 794.44 44.18 833.52"/>
          <polygon class="y" points="109.18 768.74 109.18 796 81.18 796 81.18 768.33 47.75 787.57 94.82 814.66 141.9 787.57 109.18 768.74"/>
          <polygon class="y" points="128.8 823.48 146.18 833.51 146.18 794.44 99.18 821.57 99.18 875.85 133.01 856.32 102.47 838.68 128.8 823.48"/>
          <polygon class="y" points="178.6 867.88 174.21 849.65 165.85 854.47 145.88 842.94 128.54 832.93 123.31 835.95 118.08 838.97 140.65 852 140.65 852 155.39 860.51 147.2 865.24 178.6 867.88"/>
          <polygon class="y" points="71.93 838.68 66.7 835.66 61.47 832.64 44.12 842.65 24.15 854.18 15.8 849.35 11.4 867.58 42.81 864.95 34.62 860.22 49.35 851.71 71.93 838.68"/>
          <polygon class="y" points="89.18 763.56 89.18 788 101.18 788 101.18 763.96 101.18 744 110.31 744 94.83 723.84 79.33 744 89.18 744 89.18 763.56"/>
        </g>
        <g>
          <polygon class="y" points="139.18 673.52 156.55 663.48 182.87 678.68 152.35 696.31 186.18 715.84 186.18 661.58 139.18 634.44 139.18 673.52"/>
          <polygon class="y" points="204.18 608.74 204.18 636 176.18 636 176.18 608.33 142.75 627.57 189.82 654.66 236.9 627.57 204.18 608.74"/>
          <polygon class="y" points="166.93 678.68 161.7 675.66 156.47 672.64 139.12 682.65 119.15 694.18 110.8 689.35 106.4 707.58 137.81 704.95 129.62 700.22 144.35 691.71 166.93 678.68"/>
        </g>
        <g>
          <polygon class="y" points="14.18 608.74 14.18 636 -13.82 636 -13.82 608.33 -47.25 627.57 -.18 654.66 46.9 627.57 14.18 608.74"/>
          <polygon class="y" points="33.8 663.48 51.18 673.51 51.18 634.44 4.18 661.57 4.18 715.85 38.01 696.32 7.47 678.68 33.8 663.48"/>
          <polygon class="y" points="83.6 707.88 79.21 689.65 70.85 694.47 50.88 682.94 33.54 672.93 28.31 675.95 23.08 678.97 45.65 692 45.65 692 60.39 700.51 52.2 705.24 83.6 707.88"/>
        </g>
      </g>
    </g>
    <g>
      <rect x="190.18" y="640" width="190" height="320"/>
      <g class="aj">
        <rect class="an" x="190.18" y="640" width="190" height="320"/>
        <g>
          <polygon class="y" points="329.18 993.52 346.55 983.48 372.87 998.68 342.35 1016.31 376.18 1035.84 376.18 981.58 329.18 954.44 329.18 993.52"/>
          <polygon class="y" points="394.18 928.74 394.18 956 366.18 956 366.18 928.33 332.75 947.57 379.82 974.66 426.9 947.57 394.18 928.74"/>
          <polygon class="y" points="374.18 923.56 374.18 948 386.18 948 386.18 923.96 386.18 904 395.31 904 379.83 883.84 364.33 904 374.18 904 374.18 923.56"/>
        </g>
        <g>
          <polygon class="y" points="204.18 928.74 204.18 956 176.18 956 176.18 928.33 142.75 947.57 189.82 974.66 236.9 947.57 204.18 928.74"/>
          <polygon class="y" points="223.8 983.48 241.18 993.51 241.18 954.44 194.18 981.57 194.18 1035.85 228.01 1016.32 197.47 998.68 223.8 983.48"/>
          <polygon class="y" points="184.18 923.56 184.18 948 196.18 948 196.18 923.96 196.18 904 205.31 904 189.83 883.84 174.33 904 184.18 904 184.18 923.56"/>
        </g>
        <g>
          <polygon class="y" points="234.18 833.52 251.55 823.48 277.87 838.68 247.35 856.31 281.18 875.84 281.18 821.58 234.18 794.44 234.18 833.52"/>
          <polygon class="y" points="299.18 768.74 299.18 796 271.18 796 271.18 768.33 237.75 787.57 284.82 814.66 331.9 787.57 299.18 768.74"/>
          <polygon class="y" points="318.8 823.48 336.18 833.51 336.18 794.44 289.18 821.57 289.18 875.85 323.01 856.32 292.47 838.68 318.8 823.48"/>
          <polygon class="y" points="368.6 867.88 364.21 849.65 355.85 854.47 335.88 842.94 318.54 832.93 313.31 835.95 308.08 838.97 330.65 852 330.65 852 345.39 860.51 337.2 865.24 368.6 867.88"/>
          <polygon class="y" points="261.93 838.68 256.7 835.66 251.47 832.64 234.12 842.65 214.15 854.18 205.8 849.35 201.4 867.58 232.81 864.95 224.62 860.22 239.35 851.71 261.93 838.68"/>
          <polygon class="y" points="279.18 763.56 279.18 788 291.18 788 291.18 763.96 291.18 744 300.31 744 284.83 723.84 269.33 744 279.18 744 279.18 763.56"/>
        </g>
        <g>
          <polygon class="y" points="329.18 673.52 346.55 663.48 372.87 678.68 342.35 696.31 376.18 715.84 376.18 661.58 329.18 634.44 329.18 673.52"/>
          <polygon class="y" points="394.18 608.74 394.18 636 366.18 636 366.18 608.33 332.75 627.57 379.82 654.66 426.9 627.57 394.18 608.74"/>
          <polygon class="y" points="356.93 678.68 351.7 675.66 346.47 672.64 329.12 682.65 309.15 694.18 300.8 689.35 296.4 707.58 327.81 704.95 319.62 700.22 334.35 691.71 356.93 678.68"/>
        </g>
        <g>
          <polygon class="y" points="204.18 608.74 204.18 636 176.18 636 176.18 608.33 142.75 627.57 189.82 654.66 236.9 627.57 204.18 608.74"/>
          <polygon class="y" points="223.8 663.48 241.18 673.51 241.18 634.44 194.18 661.57 194.18 715.85 228.01 696.32 197.47 678.68 223.8 663.48"/>
          <polygon class="y" points="273.6 707.88 269.21 689.65 260.85 694.47 240.88 682.94 223.54 672.93 218.31 675.95 213.08 678.97 235.65 692 235.65 692 250.39 700.51 242.2 705.24 273.6 707.88"/>
        </g>
      </g>
    </g>
    <g>
      <rect x=".18" y="960" width="190" height="320"/>
      <g class="ad">
        <rect class="an" x=".18" y="960" width="190" height="320"/>
        <g>
          <polygon class="y" points="139.18 1313.52 156.55 1303.48 182.87 1318.68 152.35 1336.31 186.18 1355.84 186.18 1301.58 139.18 1274.44 139.18 1313.52"/>
          <polygon class="y" points="204.18 1248.74 204.18 1276 176.18 1276 176.18 1248.33 142.75 1267.57 189.82 1294.66 236.9 1267.57 204.18 1248.74"/>
          <polygon class="y" points="184.18 1243.56 184.18 1268 196.18 1268 196.18 1243.96 196.18 1224 205.31 1224 189.83 1203.84 174.33 1224 184.18 1224 184.18 1243.56"/>
        </g>
        <g>
          <polygon class="y" points="14.18 1248.74 14.18 1276 -13.82 1276 -13.82 1248.33 -47.25 1267.57 -.18 1294.66 46.9 1267.57 14.18 1248.74"/>
          <polygon class="y" points="33.8 1303.48 51.18 1313.51 51.18 1274.44 4.18 1301.57 4.18 1355.85 38.01 1336.32 7.47 1318.68 33.8 1303.48"/>
          <polygon class="y" points="-5.82 1243.56 -5.82 1268 6.18 1268 6.18 1243.96 6.18 1224 15.31 1224 -.17 1203.84 -15.67 1224 -5.82 1224 -5.82 1243.56"/>
        </g>
        <g>
          <polygon class="y" points="44.18 1153.52 61.55 1143.48 87.87 1158.68 57.35 1176.31 91.18 1195.84 91.18 1141.58 44.18 1114.44 44.18 1153.52"/>
          <polygon class="y" points="109.18 1088.74 109.18 1116 81.18 1116 81.18 1088.33 47.75 1107.57 94.82 1134.66 141.9 1107.57 109.18 1088.74"/>
          <polygon class="y" points="128.8 1143.48 146.18 1153.51 146.18 1114.44 99.18 1141.57 99.18 1195.85 133.01 1176.32 102.47 1158.68 128.8 1143.48"/>
          <polygon class="y" points="178.6 1187.88 174.21 1169.65 165.85 1174.47 145.88 1162.94 128.54 1152.93 123.31 1155.95 118.08 1158.97 140.65 1172 140.65 1172 155.39 1180.51 147.2 1185.24 178.6 1187.88"/>
          <polygon class="y" points="71.93 1158.68 66.7 1155.66 61.47 1152.64 44.12 1162.65 24.15 1174.18 15.8 1169.35 11.4 1187.58 42.81 1184.95 34.62 1180.22 49.35 1171.71 71.93 1158.68"/>
          <polygon class="y" points="89.18 1083.56 89.18 1108 101.18 1108 101.18 1083.96 101.18 1064 110.31 1064 94.83 1043.84 79.33 1064 89.18 1064 89.18 1083.56"/>
        </g>
        <g>
          <polygon class="y" points="139.18 993.52 156.55 983.48 182.87 998.68 152.35 1016.31 186.18 1035.84 186.18 981.58 139.18 954.44 139.18 993.52"/>
          <polygon class="y" points="204.18 928.74 204.18 956 176.18 956 176.18 928.33 142.75 947.57 189.82 974.66 236.9 947.57 204.18 928.74"/>
          <polygon class="y" points="166.93 998.68 161.7 995.66 156.47 992.64 139.12 1002.65 119.15 1014.18 110.8 1009.35 106.4 1027.58 137.81 1024.95 129.62 1020.22 144.35 1011.71 166.93 998.68"/>
        </g>
        <g>
          <polygon class="y" points="14.18 928.74 14.18 956 -13.82 956 -13.82 928.33 -47.25 947.57 -.18 974.66 46.9 947.57 14.18 928.74"/>
          <polygon class="y" points="33.8 983.48 51.18 993.51 51.18 954.44 4.18 981.57 4.18 1035.85 38.01 1016.32 7.47 998.68 33.8 983.48"/>
          <polygon class="y" points="83.6 1027.88 79.21 1009.65 70.85 1014.47 50.88 1002.94 33.54 992.93 28.31 995.95 23.08 998.97 45.65 1012 45.65 1012 60.39 1020.51 52.2 1025.24 83.6 1027.88"/>
        </g>
      </g>
    </g>
    <g>
      <rect x="190.18" y="960" width="190" height="320"/>
      <g class="al">
        <rect class="an" x="190.18" y="960" width="190" height="320"/>
        <g>
          <polygon class="y" points="329.18 1313.52 346.55 1303.48 372.87 1318.68 342.35 1336.31 376.18 1355.84 376.18 1301.58 329.18 1274.44 329.18 1313.52"/>
          <polygon class="y" points="394.18 1248.74 394.18 1276 366.18 1276 366.18 1248.33 332.75 1267.57 379.82 1294.66 426.9 1267.57 394.18 1248.74"/>
          <polygon class="y" points="374.18 1243.56 374.18 1268 386.18 1268 386.18 1243.96 386.18 1224 395.31 1224 379.83 1203.84 364.33 1224 374.18 1224 374.18 1243.56"/>
        </g>
        <g>
          <polygon class="y" points="204.18 1248.74 204.18 1276 176.18 1276 176.18 1248.33 142.75 1267.57 189.82 1294.66 236.9 1267.57 204.18 1248.74"/>
          <polygon class="y" points="223.8 1303.48 241.18 1313.51 241.18 1274.44 194.18 1301.57 194.18 1355.85 228.01 1336.32 197.47 1318.68 223.8 1303.48"/>
          <polygon class="y" points="184.18 1243.56 184.18 1268 196.18 1268 196.18 1243.96 196.18 1224 205.31 1224 189.83 1203.84 174.33 1224 184.18 1224 184.18 1243.56"/>
        </g>
        <g>
          <polygon class="y" points="234.18 1153.52 251.55 1143.48 277.87 1158.68 247.35 1176.31 281.18 1195.84 281.18 1141.58 234.18 1114.44 234.18 1153.52"/>
          <polygon class="y" points="299.18 1088.74 299.18 1116 271.18 1116 271.18 1088.33 237.75 1107.57 284.82 1134.66 331.9 1107.57 299.18 1088.74"/>
          <polygon class="y" points="318.8 1143.48 336.18 1153.51 336.18 1114.44 289.18 1141.57 289.18 1195.85 323.01 1176.32 292.47 1158.68 318.8 1143.48"/>
          <polygon class="y" points="368.6 1187.88 364.21 1169.65 355.85 1174.47 335.88 1162.94 318.54 1152.93 313.31 1155.95 308.08 1158.97 330.65 1172 330.65 1172 345.39 1180.51 337.2 1185.24 368.6 1187.88"/>
          <polygon class="y" points="261.93 1158.68 256.7 1155.66 251.47 1152.64 234.12 1162.65 214.15 1174.18 205.8 1169.35 201.4 1187.58 232.81 1184.95 224.62 1180.22 239.35 1171.71 261.93 1158.68"/>
          <polygon class="y" points="279.18 1083.56 279.18 1108 291.18 1108 291.18 1083.96 291.18 1064 300.31 1064 284.83 1043.84 269.33 1064 279.18 1064 279.18 1083.56"/>
        </g>
        <g>
          <polygon class="y" points="329.18 993.52 346.55 983.48 372.87 998.68 342.35 1016.31 376.18 1035.84 376.18 981.58 329.18 954.44 329.18 993.52"/>
          <polygon class="y" points="394.18 928.74 394.18 956 366.18 956 366.18 928.33 332.75 947.57 379.82 974.66 426.9 947.57 394.18 928.74"/>
          <polygon class="y" points="356.93 998.68 351.7 995.66 346.47 992.64 329.12 1002.65 309.15 1014.18 300.8 1009.35 296.4 1027.58 327.81 1024.95 319.62 1020.22 334.35 1011.71 356.93 998.68"/>
        </g>
        <g>
          <polygon class="y" points="204.18 928.74 204.18 956 176.18 956 176.18 928.33 142.75 947.57 189.82 974.66 236.9 947.57 204.18 928.74"/>
          <polygon class="y" points="223.8 983.48 241.18 993.51 241.18 954.44 194.18 981.57 194.18 1035.85 228.01 1016.32 197.47 998.68 223.8 983.48"/>
          <polygon class="y" points="273.6 1027.88 269.21 1009.65 260.85 1014.47 240.88 1002.94 223.54 992.93 218.31 995.95 213.08 998.97 235.65 1012 235.65 1012 250.39 1020.51 242.2 1025.24 273.6 1027.88"/>
        </g>
      </g>
    </g>
    <g>
      <rect x="380.01" y="640" width="190" height="320"/>
      <g class="ac">
        <rect class="an" x="380.01" y="640" width="190" height="320"/>
        <g>
          <polygon class="y" points="519.01 993.52 536.38 983.48 562.71 998.68 532.18 1016.31 566.01 1035.84 566.01 981.58 519.01 954.44 519.01 993.52"/>
          <polygon class="y" points="584.01 928.74 584.01 956 556.01 956 556.01 928.33 522.58 947.57 569.66 974.66 616.73 947.57 584.01 928.74"/>
          <polygon class="y" points="564.01 923.56 564.01 948 576.01 948 576.01 923.96 576.01 904 585.14 904 569.66 883.84 554.17 904 564.01 904 564.01 923.56"/>
        </g>
        <g>
          <polygon class="y" points="394.01 928.74 394.01 956 366.01 956 366.01 928.33 332.58 947.57 379.66 974.66 426.73 947.57 394.01 928.74"/>
          <polygon class="y" points="413.63 983.48 431.01 993.51 431.01 954.44 384.01 981.57 384.01 1035.85 417.84 1016.32 387.31 998.68 413.63 983.48"/>
          <polygon class="y" points="374.01 923.56 374.01 948 386.01 948 386.01 923.96 386.01 904 395.14 904 379.66 883.84 364.17 904 374.01 904 374.01 923.56"/>
        </g>
        <g>
          <polygon class="y" points="424.01 833.52 441.38 823.48 467.71 838.68 437.18 856.31 471.01 875.84 471.01 821.58 424.01 794.44 424.01 833.52"/>
          <polygon class="y" points="489.01 768.74 489.01 796 461.01 796 461.01 768.33 427.58 787.57 474.66 814.66 521.73 787.57 489.01 768.74"/>
          <polygon class="y" points="508.63 823.48 526.01 833.51 526.01 794.44 479.01 821.57 479.01 875.85 512.84 856.32 482.31 838.68 508.63 823.48"/>
          <polygon class="y" points="558.44 867.88 554.05 849.65 545.69 854.47 525.71 842.94 508.37 832.93 503.14 835.95 497.91 838.97 520.48 852 520.48 852 535.23 860.51 527.03 865.24 558.44 867.88"/>
          <polygon class="y" points="451.76 838.68 446.53 835.66 441.3 832.64 423.95 842.65 403.98 854.18 395.63 849.35 391.23 867.58 422.64 864.95 414.45 860.22 429.19 851.71 451.76 838.68"/>
          <polygon class="y" points="469.01 763.56 469.01 788 481.01 788 481.01 763.96 481.01 744 490.14 744 474.66 723.84 459.17 744 469.01 744 469.01 763.56"/>
        </g>
        <g>
          <polygon class="y" points="519.01 673.52 536.38 663.48 562.71 678.68 532.18 696.31 566.01 715.84 566.01 661.58 519.01 634.44 519.01 673.52"/>
          <polygon class="y" points="584.01 608.74 584.01 636 556.01 636 556.01 608.33 522.58 627.57 569.66 654.66 616.73 627.57 584.01 608.74"/>
          <polygon class="y" points="546.76 678.68 541.53 675.66 536.3 672.64 518.95 682.65 498.98 694.18 490.63 689.35 486.23 707.58 517.64 704.95 509.45 700.22 524.19 691.71 546.76 678.68"/>
        </g>
        <g>
          <polygon class="y" points="394.01 608.74 394.01 636 366.01 636 366.01 608.33 332.58 627.57 379.66 654.66 426.73 627.57 394.01 608.74"/>
          <polygon class="y" points="413.63 663.48 431.01 673.51 431.01 634.44 384.01 661.57 384.01 715.85 417.84 696.32 387.31 678.68 413.63 663.48"/>
          <polygon class="y" points="463.44 707.88 459.05 689.65 450.69 694.47 430.71 682.94 413.37 672.93 408.14 675.95 402.91 678.97 425.48 692 425.48 692 440.23 700.51 432.03 705.24 463.44 707.88"/>
        </g>
      </g>
    </g>
    <g>
      <rect x="570.01" y="640" width="190" height="320"/>
      <g class="ap">
        <rect class="an" x="570.01" y="640" width="190" height="320"/>
        <g>
          <polygon class="y" points="709.01 993.52 726.38 983.48 752.71 998.68 722.18 1016.31 756.01 1035.84 756.01 981.58 709.01 954.44 709.01 993.52"/>
          <polygon class="y" points="774.01 928.74 774.01 956 746.01 956 746.01 928.33 712.58 947.57 759.66 974.66 806.73 947.57 774.01 928.74"/>
          <polygon class="y" points="754.01 923.56 754.01 948 766.01 948 766.01 923.96 766.01 904 775.14 904 759.66 883.84 744.17 904 754.01 904 754.01 923.56"/>
        </g>
        <g>
          <polygon class="y" points="584.01 928.74 584.01 956 556.01 956 556.01 928.33 522.58 947.57 569.66 974.66 616.73 947.57 584.01 928.74"/>
          <polygon class="y" points="603.63 983.48 621.01 993.51 621.01 954.44 574.01 981.57 574.01 1035.85 607.84 1016.32 577.31 998.68 603.63 983.48"/>
          <polygon class="y" points="564.01 923.56 564.01 948 576.01 948 576.01 923.96 576.01 904 585.14 904 569.66 883.84 554.17 904 564.01 904 564.01 923.56"/>
        </g>
        <g>
          <polygon class="y" points="614.01 833.52 631.38 823.48 657.71 838.68 627.18 856.31 661.01 875.84 661.01 821.58 614.01 794.44 614.01 833.52"/>
          <polygon class="y" points="679.01 768.74 679.01 796 651.01 796 651.01 768.33 617.58 787.57 664.66 814.66 711.73 787.57 679.01 768.74"/>
          <polygon class="y" points="698.63 823.48 716.01 833.51 716.01 794.44 669.01 821.57 669.01 875.85 702.84 856.32 672.31 838.68 698.63 823.48"/>
          <polygon class="y" points="748.44 867.88 744.05 849.65 735.69 854.47 715.71 842.94 698.37 832.93 693.14 835.95 687.91 838.97 710.48 852 710.48 852 725.23 860.51 717.03 865.24 748.44 867.88"/>
          <polygon class="y" points="641.76 838.68 636.53 835.66 631.3 832.64 613.95 842.65 593.98 854.18 585.63 849.35 581.23 867.58 612.64 864.95 604.45 860.22 619.19 851.71 641.76 838.68"/>
          <polygon class="y" points="659.01 763.56 659.01 788 671.01 788 671.01 763.96 671.01 744 680.14 744 664.66 723.84 649.17 744 659.01 744 659.01 763.56"/>
        </g>
        <g>
          <polygon class="y" points="709.01 673.52 726.38 663.48 752.71 678.68 722.18 696.31 756.01 715.84 756.01 661.58 709.01 634.44 709.01 673.52"/>
          <polygon class="y" points="774.01 608.74 774.01 636 746.01 636 746.01 608.33 712.58 627.57 759.66 654.66 806.73 627.57 774.01 608.74"/>
          <polygon class="y" points="736.76 678.68 731.53 675.66 726.3 672.64 708.95 682.65 688.98 694.18 680.63 689.35 676.23 707.58 707.64 704.95 699.45 700.22 714.19 691.71 736.76 678.68"/>
        </g>
        <g>
          <polygon class="y" points="584.01 608.74 584.01 636 556.01 636 556.01 608.33 522.58 627.57 569.66 654.66 616.73 627.57 584.01 608.74"/>
          <polygon class="y" points="603.63 663.48 621.01 673.51 621.01 634.44 574.01 661.57 574.01 715.85 607.84 696.32 577.31 678.68 603.63 663.48"/>
          <polygon class="y" points="653.44 707.88 649.05 689.65 640.69 694.47 620.71 682.94 603.37 672.93 598.14 675.95 592.91 678.97 615.48 692 615.48 692 630.23 700.51 622.03 705.24 653.44 707.88"/>
        </g>
      </g>
    </g>
    <g>
      <rect x="380.01" y="960" width="190" height="320"/>
      <g class="aa">
        <rect class="an" x="380.01" y="960" width="190" height="320"/>
        <g>
          <polygon class="y" points="519.01 1313.52 536.38 1303.48 562.71 1318.68 532.18 1336.31 566.01 1355.84 566.01 1301.58 519.01 1274.44 519.01 1313.52"/>
          <polygon class="y" points="584.01 1248.74 584.01 1276 556.01 1276 556.01 1248.33 522.58 1267.57 569.66 1294.66 616.73 1267.57 584.01 1248.74"/>
          <polygon class="y" points="564.01 1243.56 564.01 1268 576.01 1268 576.01 1243.96 576.01 1224 585.14 1224 569.66 1203.84 554.17 1224 564.01 1224 564.01 1243.56"/>
        </g>
        <g>
          <polygon class="y" points="394.01 1248.74 394.01 1276 366.01 1276 366.01 1248.33 332.58 1267.57 379.66 1294.66 426.73 1267.57 394.01 1248.74"/>
          <polygon class="y" points="413.63 1303.48 431.01 1313.51 431.01 1274.44 384.01 1301.57 384.01 1355.85 417.84 1336.32 387.31 1318.68 413.63 1303.48"/>
          <polygon class="y" points="374.01 1243.56 374.01 1268 386.01 1268 386.01 1243.96 386.01 1224 395.14 1224 379.66 1203.84 364.17 1224 374.01 1224 374.01 1243.56"/>
        </g>
        <g>
          <polygon class="y" points="424.01 1153.52 441.38 1143.48 467.71 1158.68 437.18 1176.31 471.01 1195.84 471.01 1141.58 424.01 1114.44 424.01 1153.52"/>
          <polygon class="y" points="489.01 1088.74 489.01 1116 461.01 1116 461.01 1088.33 427.58 1107.57 474.66 1134.66 521.73 1107.57 489.01 1088.74"/>
          <polygon class="y" points="508.63 1143.48 526.01 1153.51 526.01 1114.44 479.01 1141.57 479.01 1195.85 512.84 1176.32 482.31 1158.68 508.63 1143.48"/>
          <polygon class="y" points="558.44 1187.88 554.05 1169.65 545.69 1174.47 525.71 1162.94 508.37 1152.93 503.14 1155.95 497.91 1158.97 520.48 1172 520.48 1172 535.23 1180.51 527.03 1185.24 558.44 1187.88"/>
          <polygon class="y" points="451.76 1158.68 446.53 1155.66 441.3 1152.64 423.95 1162.65 403.98 1174.18 395.63 1169.35 391.23 1187.58 422.64 1184.95 414.45 1180.22 429.19 1171.71 451.76 1158.68"/>
          <polygon class="y" points="469.01 1083.56 469.01 1108 481.01 1108 481.01 1083.96 481.01 1064 490.14 1064 474.66 1043.84 459.17 1064 469.01 1064 469.01 1083.56"/>
        </g>
        <g>
          <polygon class="y" points="519.01 993.52 536.38 983.48 562.71 998.68 532.18 1016.31 566.01 1035.84 566.01 981.58 519.01 954.44 519.01 993.52"/>
          <polygon class="y" points="584.01 928.74 584.01 956 556.01 956 556.01 928.33 522.58 947.57 569.66 974.66 616.73 947.57 584.01 928.74"/>
          <polygon class="y" points="546.76 998.68 541.53 995.66 536.3 992.64 518.95 1002.65 498.98 1014.18 490.63 1009.35 486.23 1027.58 517.64 1024.95 509.45 1020.22 524.19 1011.71 546.76 998.68"/>
        </g>
        <g>
          <polygon class="y" points="394.01 928.74 394.01 956 366.01 956 366.01 928.33 332.58 947.57 379.66 974.66 426.73 947.57 394.01 928.74"/>
          <polygon class="y" points="413.63 983.48 431.01 993.51 431.01 954.44 384.01 981.57 384.01 1035.85 417.84 1016.32 387.31 998.68 413.63 983.48"/>
          <polygon class="y" points="463.44 1027.88 459.05 1009.65 450.69 1014.47 430.71 1002.94 413.37 992.93 408.14 995.95 402.91 998.97 425.48 1012 425.48 1012 440.23 1020.51 432.03 1025.24 463.44 1027.88"/>
        </g>
      </g>
    </g>
    <g>
      <rect x="570.01" y="960" width="190" height="320"/>
      <g class="ao">
        <rect class="an" x="570.01" y="960" width="190" height="320"/>
        <g>
          <polygon class="y" points="709.01 1313.52 726.38 1303.48 752.71 1318.68 722.18 1336.31 756.01 1355.84 756.01 1301.58 709.01 1274.44 709.01 1313.52"/>
          <polygon class="y" points="774.01 1248.74 774.01 1276 746.01 1276 746.01 1248.33 712.58 1267.57 759.66 1294.66 806.73 1267.57 774.01 1248.74"/>
          <polygon class="y" points="754.01 1243.56 754.01 1268 766.01 1268 766.01 1243.96 766.01 1224 775.14 1224 759.66 1203.84 744.17 1224 754.01 1224 754.01 1243.56"/>
        </g>
        <g>
          <polygon class="y" points="584.01 1248.74 584.01 1276 556.01 1276 556.01 1248.33 522.58 1267.57 569.66 1294.66 616.73 1267.57 584.01 1248.74"/>
          <polygon class="y" points="603.63 1303.48 621.01 1313.51 621.01 1274.44 574.01 1301.57 574.01 1355.85 607.84 1336.32 577.31 1318.68 603.63 1303.48"/>
          <polygon class="y" points="564.01 1243.56 564.01 1268 576.01 1268 576.01 1243.96 576.01 1224 585.14 1224 569.66 1203.84 554.17 1224 564.01 1224 564.01 1243.56"/>
        </g>
        <g>
          <polygon class="y" points="614.01 1153.52 631.38 1143.48 657.71 1158.68 627.18 1176.31 661.01 1195.84 661.01 1141.58 614.01 1114.44 614.01 1153.52"/>
          <polygon class="y" points="679.01 1088.74 679.01 1116 651.01 1116 651.01 1088.33 617.58 1107.57 664.66 1134.66 711.73 1107.57 679.01 1088.74"/>
          <polygon class="y" points="698.63 1143.48 716.01 1153.51 716.01 1114.44 669.01 1141.57 669.01 1195.85 702.84 1176.32 672.31 1158.68 698.63 1143.48"/>
          <polygon class="y" points="748.44 1187.88 744.05 1169.65 735.69 1174.47 715.71 1162.94 698.37 1152.93 693.14 1155.95 687.91 1158.97 710.48 1172 710.48 1172 725.23 1180.51 717.03 1185.24 748.44 1187.88"/>
          <polygon class="y" points="641.76 1158.68 636.53 1155.66 631.3 1152.64 613.95 1162.65 593.98 1174.18 585.63 1169.35 581.23 1187.58 612.64 1184.95 604.45 1180.22 619.19 1171.71 641.76 1158.68"/>
          <polygon class="y" points="659.01 1083.56 659.01 1108 671.01 1108 671.01 1083.96 671.01 1064 680.14 1064 664.66 1043.84 649.17 1064 659.01 1064 659.01 1083.56"/>
        </g>
        <g>
          <polygon class="y" points="709.01 993.52 726.38 983.48 752.71 998.68 722.18 1016.31 756.01 1035.84 756.01 981.58 709.01 954.44 709.01 993.52"/>
          <polygon class="y" points="774.01 928.74 774.01 956 746.01 956 746.01 928.33 712.58 947.57 759.66 974.66 806.73 947.57 774.01 928.74"/>
          <polygon class="y" points="736.76 998.68 731.53 995.66 726.3 992.64 708.95 1002.65 688.98 1014.18 680.63 1009.35 676.23 1027.58 707.64 1024.95 699.45 1020.22 714.19 1011.71 736.76 998.68"/>
        </g>
        <g>
          <polygon class="y" points="584.01 928.74 584.01 956 556.01 956 556.01 928.33 522.58 947.57 569.66 974.66 616.73 947.57 584.01 928.74"/>
          <polygon class="y" points="603.63 983.48 621.01 993.51 621.01 954.44 574.01 981.57 574.01 1035.85 607.84 1016.32 577.31 998.68 603.63 983.48"/>
          <polygon class="y" points="653.44 1027.88 649.05 1009.65 640.69 1014.47 620.71 1002.94 603.37 992.93 598.14 995.95 592.91 998.97 615.48 1012 615.48 1012 630.23 1020.51 622.03 1025.24 653.44 1027.88"/>
        </g>
      </g>
    </g>
  </g>
</svg>